<svg width="71" height="64" viewBox="0 0 71 64" fill="none" xmlns="http://www.w3.org/2000/svg">
<path d="M4.46096 39.4714L10.7143 43.9646L12.0935 47.4799C15.7696 56.8494 24.8078 63.0123 34.8726 63.0123C45.365 63.0123 54.6896 56.323 58.0519 46.3839L59.1219 43.2208L65.6754 39.195C70.2909 36.3597 71.827 30.3756 69.148 25.6678L68.6257 24.7499C65.8299 19.837 59.2926 18.6091 54.9048 22.1727L57.0916 14.2355C58.3135 9.80039 56.6632 5.07194 52.947 2.36029L52.431 1.98377C49.8747 0.118511 46.5762 -0.400415 43.5706 0.589874C40.2401 1.68727 37.7476 4.47762 37.0315 7.91044L35.4762 15.3661L34.2418 8.34392C33.595 4.66422 30.9679 1.64305 27.4137 0.491409C24.5254 -0.444471 21.3693 -0.0301208 18.8204 1.61957L18.3477 1.92549C13.8928 4.80878 12.0515 10.4083 13.9256 15.3728L16.4926 22.1727C11.4195 18.5671 4.3321 20.2502 1.42178 25.7517L1.29602 25.9895C-1.16571 30.643 0.185639 36.3994 4.46096 39.4714Z" fill="#FCD581"/>
<path d="M46.9524 2.82178C39.4542 4.13173 37.0628 19.6882 44.6679 20.0055C44.7761 20.01 44.8868 20.0123 45 20.0123C49.8391 20.0123 53.5 17.8513 53.5 13.0123C53.5 8.1732 52 4.01227 46.9524 2.82178Z" fill="#4B2B22"/>
<path d="M5 28.1961C5 33.1882 7.66093 38.5123 12.5 38.5123C17.3391 38.5123 18.6429 36.7988 18.6429 31.8068C18.6429 26.8147 16.5 25.5123 11.5 24.0697C7.5 23.0123 5 23.2041 5 28.1961Z" fill="#4B2B22"/>
<path d="M24.0476 2.82178C31.5458 4.13173 33.9372 19.6882 26.3321 20.0055C26.2239 20.01 26.1132 20.0123 26 20.0123C21.1609 20.0123 17.5 17.8513 17.5 13.0123C17.5 8.1732 19 4.01227 24.0476 2.82178Z" fill="#4B2B22"/>
<path d="M52.6667 45.6313C51.9286 52.7742 46.8752 49.2297 43.4286 51.2742C39.6392 53.522 38.0579 56.5949 35.5238 56.5949C33.1808 56.5949 31.1198 53.2532 27.4286 51.2742C23.4963 49.1659 19.4286 51.7742 18 45.6313C18 43.1628 22.5166 40.279 26 35.2742C29.9115 29.6543 27.4286 29.0123 29.5 26.0123C31 23.5123 39.8996 23.2637 41.5 26.0123C42.9535 28.5085 42.6201 32.3643 44.5 35.2742C47.4708 39.8727 52.6667 43.3818 52.6667 45.6313Z" fill="#4B2B22"/>
<path d="M65.5 28.1961C65.5 33.1882 62.8391 38.5123 58 38.5123C53.1609 38.5123 51.8571 36.7988 51.8571 31.8068C51.8571 26.8147 54 25.5123 59 24.0697C63 23.0123 65.5 23.2041 65.5 28.1961Z" fill="#4B2B22"/>
</svg>
